<svg xmlns="http://www.w3.org/2000/svg" width="69.999" height="56" viewBox="0 0 69.999 56">
  <g id="Union_9" data-name="Union 9" transform="translate(-988 -54)" fill="none">
    <path d="M1011.83,110H999a11,11,0,0,1-11-11V65a11,11,0,0,1,11-11h41.2c9.83,0,17.8,28,17.8,28s-7.968,28-17.8,28Z" stroke="none"/>
    <path d="M 1040.202026367188 107.9998016357422 C 1042.203247070312 107.9998016357422 1044.223388671875 106.0304489135742 1045.565673828125 104.3783645629883 C 1047.341918945312 102.1921691894531 1049.154296875 99.10484313964844 1050.952392578125 95.20216369628906 C 1053.56787109375 89.52571868896484 1055.380981445312 83.76606750488281 1055.913818359375 81.99990844726562 C 1055.380859375 80.23313140869141 1053.567626953125 74.47367095947266 1050.952392578125 68.79763793945312 C 1049.154296875 64.89495849609375 1047.341918945312 61.80763244628906 1045.565673828125 59.62143325805664 C 1044.223388671875 57.96935653686523 1042.203247070312 56 1040.202026367188 56 L 1015.015563964844 56 L 999.0000610351562 56 C 994.0375366210938 56 990.000244140625 60.03728866577148 990.000244140625 64.99980163574219 L 990.000244140625 99 C 990.000244140625 103.9625091552734 994.0375366210938 107.9998016357422 999.0000610351562 107.9998016357422 L 1011.829528808594 107.9998016357422 L 1040.202026367188 107.9998016357422 M 1040.202026367188 109.9998016357422 L 1011.829528808594 109.9998016357422 L 999.0000610351562 109.9998016357422 C 992.925048828125 109.9998016357422 988.000244140625 105.0750045776367 988.000244140625 99 L 988.000244140625 64.99980163574219 C 988.000244140625 58.92480087280273 992.925048828125 54 999.0000610351562 54 L 1015.015563964844 54 L 1040.202026367188 54 C 1050.031860351562 54 1057.99951171875 81.99990081787109 1057.99951171875 81.99990081787109 C 1057.99951171875 81.99990081787109 1050.031860351562 109.9998016357422 1040.202026367188 109.9998016357422 Z" stroke="none" fill="#e9e9e9"/>
  </g>
</svg>
