<svg xmlns="http://www.w3.org/2000/svg" width="69.999" height="58.999" viewBox="0 0 69.999 58.999">
  <g id="Union_9" data-name="Union 9" transform="translate(-988 -54)" fill="none">
    <path d="M1011.83,113H999a11,11,0,0,1-11-11V65a11,11,0,0,1,11-11h41.2c9.83,0,17.8,29.5,17.8,29.5s-7.968,29.5-17.8,29.5Z" stroke="none"/>
    <path d="M 1040.202026367188 110.9994964599609 C 1043.269653320312 110.9994964599609 1047.182739257812 106.074089050293 1050.93798828125 97.48621368408203 C 1053.584350585938 91.43437194824219 1055.41015625 85.29444122314453 1055.922485351562 83.49997711181641 C 1055.411865234375 81.71019744873047 1053.595703125 75.59967041015625 1050.9541015625 69.55050659179688 C 1047.193481445312 60.93896865844727 1043.274536132812 56.00000381469727 1040.202026367188 56.00000381469727 L 1015.015563964844 56.00000381469727 L 999.0000610351562 56.00000381469727 C 994.0375366210938 56.00000381469727 990.000244140625 60.03729248046875 990.000244140625 64.99980163574219 L 990.000244140625 101.9997024536133 C 990.000244140625 106.9622039794922 994.0375366210938 110.9994964599609 999.0000610351562 110.9994964599609 L 1011.829528808594 110.9994964599609 L 1040.202026367188 110.9994964599609 M 1040.202026367188 112.9994964599609 L 1011.829528808594 112.9994964599609 L 999.0000610351562 112.9994964599609 C 992.925048828125 112.9994964599609 988.000244140625 108.07470703125 988.000244140625 101.9997024536133 L 988.000244140625 64.99980163574219 C 988.000244140625 58.9248046875 992.925048828125 54.00000381469727 999.0000610351562 54.00000381469727 L 1015.015563964844 54.00000381469727 L 1040.202026367188 54.00000381469727 C 1050.031860351562 54.00000381469727 1057.99951171875 83.50020599365234 1057.99951171875 83.50020599365234 C 1057.99951171875 83.50020599365234 1050.031860351562 112.9994964599609 1040.202026367188 112.9994964599609 Z" stroke="none" fill="#e9e9e9"/>
  </g>
</svg>
