<svg xmlns="http://www.w3.org/2000/svg" width="69.999" height="60" viewBox="0 0 69.999 60">
  <g id="Union_9" data-name="Union 9" transform="translate(-988 -54)" fill="none">
    <path d="M1011.83,114H999a11,11,0,0,1-11-11V65a11,11,0,0,1,11-11h41.2c9.83,0,17.8,30,17.8,30s-7.968,30-17.8,30Z" stroke="none"/>
    <path d="M 1040.202026367188 112.0003051757812 C 1042.16943359375 112.0003051757812 1044.182983398438 109.889274597168 1045.525512695312 108.1183395385742 C 1047.309692382812 105.7650604248047 1049.129272460938 102.4439315795898 1050.93359375 98.24717712402344 C 1053.58935546875 92.07024383544922 1055.419067382812 85.80353546142578 1055.925048828125 83.99971008300781 C 1055.419067382812 82.19578552246094 1053.589477539062 75.92942810058594 1050.93359375 69.75270080566406 C 1049.129272460938 65.55607604980469 1047.309692382812 62.23504257202148 1045.525512695312 59.88183975219727 C 1044.182983398438 58.1109619140625 1042.16943359375 55.99999618530273 1040.202026367188 55.99999618530273 L 1015.015563964844 55.99999618530273 L 999.0000610351562 55.99999618530273 C 994.0375366210938 55.99999618530273 990.000244140625 60.03728485107422 990.000244140625 64.99979400634766 L 990.000244140625 102.9996109008789 C 990.000244140625 107.9626083374023 994.0375366210938 112.0003051757812 999.0000610351562 112.0003051757812 L 1011.829528808594 112.0003051757812 L 1040.202026367188 112.0003051757812 M 1040.202026367188 114.0003051757812 L 1011.829528808594 114.0003051757812 L 999.0000610351562 114.0003051757812 C 992.925048828125 114.0003051757812 988.000244140625 109.0755004882812 988.000244140625 102.9996109008789 L 988.000244140625 64.99979400634766 C 988.000244140625 58.92479705810547 992.925048828125 53.99999618530273 999.0000610351562 53.99999618530273 L 1015.015563964844 53.99999618530273 L 1040.202026367188 53.99999618530273 C 1050.031860351562 53.99999618530273 1057.99951171875 83.99969482421875 1057.99951171875 83.99969482421875 C 1057.99951171875 83.99969482421875 1050.031860351562 114.0003051757812 1040.202026367188 114.0003051757812 Z" stroke="none" fill="#e9e9e9"/>
  </g>
</svg>
