<svg xmlns="http://www.w3.org/2000/svg" width="70" height="69" viewBox="0 0 70 69">
  <g id="Union_9" data-name="Union 9" transform="translate(-988 -54)" fill="none">
    <path d="M1011.83,123H999a11,11,0,0,1-11-11V65a11,11,0,0,1,11-11h41.2c9.83,0,17.8,34.5,17.8,34.5s-7.969,34.5-17.8,34.5Z" stroke="none"/>
    <path d="M 1040.202026367188 121.0003051757812 C 1041.683837890625 121.0003051757812 1043.548217773438 119.4096603393555 1045.451904296875 116.5213775634766 C 1047.251708984375 113.7904434204102 1049.085327148438 109.9419403076172 1050.901611328125 105.0827941894531 C 1053.631591796875 97.77935791015625 1055.490844726562 90.37220001220703 1055.9443359375 88.49970245361328 C 1055.490844726562 86.62715148925781 1053.631591796875 79.22031402587891 1050.901611328125 71.91706085205078 C 1049.085327148438 67.05805206298828 1047.251708984375 63.20966339111328 1045.451904296875 60.47880935668945 C 1043.548217773438 57.59060668945312 1041.683837890625 55.99999618530273 1040.202026367188 55.99999618530273 L 1015.015502929688 55.99999618530273 L 999 55.99999618530273 C 994.0375366210938 55.99999618530273 990.000244140625 60.03729629516602 990.000244140625 64.99980926513672 L 990.000244140625 111.9996109008789 C 990.000244140625 116.9626083374023 994.0375366210938 121.0003051757812 999 121.0003051757812 L 1011.829528808594 121.0003051757812 L 1040.202026367188 121.0003051757812 M 1040.202026367188 123.0003051757812 L 1011.829528808594 123.0003051757812 L 999 123.0003051757812 C 992.9249877929688 123.0003051757812 988.000244140625 118.0755004882812 988.000244140625 111.9996109008789 L 988.000244140625 64.99980926513672 C 988.000244140625 58.92479705810547 992.9249877929688 53.99999618530273 999 53.99999618530273 L 1015.015502929688 53.99999618530273 L 1040.202026367188 53.99999618530273 C 1050.03173828125 53.99999618530273 1058.00048828125 88.49969482421875 1058.00048828125 88.49969482421875 C 1058.00048828125 88.49969482421875 1050.03173828125 123.0003051757812 1040.202026367188 123.0003051757812 Z" stroke="none" fill="#ccc"/>
  </g>
</svg>
